<mxfile host="app.diagrams.net" modified="2023-08-18T13:21:51.716Z" agent="Mozilla/5.0 (Macintosh; Intel Mac OS X 10.15; rv:109.0) Gecko/20100101 Firefox/115.0" etag="_1OAQrbzoAMGMZ51hoKF" version="21.6.8" type="device">
  <diagram name="Page-1" id="GcPkCvEKvhiKcw6OQqa1">
    <mxGraphModel dx="954" dy="589" grid="1" gridSize="10" guides="1" tooltips="1" connect="1" arrows="1" fold="1" page="1" pageScale="1" pageWidth="850" pageHeight="1100" math="0" shadow="0">
      <root>
        <mxCell id="0" />
        <mxCell id="1" parent="0" />
        <mxCell id="4hqCCRMgRRj-aJbobt0X-37" style="edgeStyle=orthogonalEdgeStyle;rounded=0;orthogonalLoop=1;jettySize=auto;html=1;exitX=1;exitY=0.5;exitDx=0;exitDy=0;entryX=0;entryY=0.5;entryDx=0;entryDy=0;dashed=1;endArrow=block;endFill=0;" parent="1" source="TacEt5JEjnXENLw2XKBG-30" target="TacEt5JEjnXENLw2XKBG-28" edge="1">
          <mxGeometry relative="1" as="geometry" />
        </mxCell>
        <mxCell id="TacEt5JEjnXENLw2XKBG-30" value="" style="rounded=0;whiteSpace=wrap;html=1;fillColor=none;dashed=1;" parent="1" vertex="1">
          <mxGeometry x="40" y="280" width="180" height="70" as="geometry" />
        </mxCell>
        <mxCell id="TacEt5JEjnXENLw2XKBG-32" value="" style="rounded=0;whiteSpace=wrap;html=1;fillColor=none;dashed=1;" parent="1" vertex="1">
          <mxGeometry x="39.42" y="380" width="180" height="150" as="geometry" />
        </mxCell>
        <mxCell id="TacEt5JEjnXENLw2XKBG-28" value="" style="rounded=0;whiteSpace=wrap;html=1;fillColor=none;dashed=1;" parent="1" vertex="1">
          <mxGeometry x="250" y="100" width="290" height="430" as="geometry" />
        </mxCell>
        <mxCell id="TacEt5JEjnXENLw2XKBG-5" value="Build" style="rounded=1;whiteSpace=wrap;html=1;" parent="1" vertex="1">
          <mxGeometry x="59.42" y="310" width="140" height="30" as="geometry" />
        </mxCell>
        <mxCell id="TacEt5JEjnXENLw2XKBG-6" value="PHPUnit" style="rounded=1;whiteSpace=wrap;html=1;" parent="1" vertex="1">
          <mxGeometry x="400" y="380" width="120" height="40" as="geometry" />
        </mxCell>
        <mxCell id="TacEt5JEjnXENLw2XKBG-9" value="PHPCS" style="rounded=1;whiteSpace=wrap;html=1;" parent="1" vertex="1">
          <mxGeometry x="270" y="330" width="120" height="40" as="geometry" />
        </mxCell>
        <mxCell id="TacEt5JEjnXENLw2XKBG-10" value="PHPMD" style="rounded=1;whiteSpace=wrap;html=1;" parent="1" vertex="1">
          <mxGeometry x="270" y="380" width="120" height="40" as="geometry" />
        </mxCell>
        <mxCell id="TacEt5JEjnXENLw2XKBG-12" value="PHPStan" style="rounded=1;whiteSpace=wrap;html=1;" parent="1" vertex="1">
          <mxGeometry x="270" y="430" width="120" height="40" as="geometry" />
        </mxCell>
        <mxCell id="TacEt5JEjnXENLw2XKBG-14" value="Deptrac" style="rounded=1;whiteSpace=wrap;html=1;" parent="1" vertex="1">
          <mxGeometry x="270" y="480" width="120" height="40" as="geometry" />
        </mxCell>
        <mxCell id="TacEt5JEjnXENLw2XKBG-15" value="License-Checker" style="rounded=1;whiteSpace=wrap;html=1;" parent="1" vertex="1">
          <mxGeometry x="400" y="430" width="120" height="40" as="geometry" />
        </mxCell>
        <mxCell id="TacEt5JEjnXENLw2XKBG-16" value="Security-Checker" style="rounded=1;whiteSpace=wrap;html=1;" parent="1" vertex="1">
          <mxGeometry x="400" y="480" width="120" height="40" as="geometry" />
        </mxCell>
        <mxCell id="TacEt5JEjnXENLw2XKBG-17" value="Eslint" style="rounded=1;whiteSpace=wrap;html=1;" parent="1" vertex="1">
          <mxGeometry x="270" y="130" width="120" height="40" as="geometry" />
        </mxCell>
        <mxCell id="TacEt5JEjnXENLw2XKBG-18" value="Infection PHP" style="rounded=1;whiteSpace=wrap;html=1;" parent="1" vertex="1">
          <mxGeometry x="400" y="330" width="120" height="40" as="geometry" />
        </mxCell>
        <mxCell id="TacEt5JEjnXENLw2XKBG-19" value="Jest" style="rounded=1;whiteSpace=wrap;html=1;" parent="1" vertex="1">
          <mxGeometry x="400" y="130" width="120" height="40" as="geometry" />
        </mxCell>
        <mxCell id="TacEt5JEjnXENLw2XKBG-20" value="Cypress" style="rounded=1;whiteSpace=wrap;html=1;" parent="1" vertex="1">
          <mxGeometry x="270" y="180" width="120" height="40" as="geometry" />
        </mxCell>
        <mxCell id="TacEt5JEjnXENLw2XKBG-21" value="Deploy Development" style="rounded=1;whiteSpace=wrap;html=1;fillColor=#dae8fc;strokeColor=#6c8ebf;" parent="1" vertex="1">
          <mxGeometry x="59.42" y="410" width="140" height="30" as="geometry" />
        </mxCell>
        <mxCell id="TacEt5JEjnXENLw2XKBG-22" value="Danger JS" style="rounded=1;whiteSpace=wrap;html=1;" parent="1" vertex="1">
          <mxGeometry x="270" y="230" width="120" height="40" as="geometry" />
        </mxCell>
        <mxCell id="TacEt5JEjnXENLw2XKBG-29" value="Testing Stage" style="text;html=1;strokeColor=none;fillColor=none;align=center;verticalAlign=middle;whiteSpace=wrap;rounded=0;" parent="1" vertex="1">
          <mxGeometry x="250" y="100" width="90" height="30" as="geometry" />
        </mxCell>
        <mxCell id="TacEt5JEjnXENLw2XKBG-31" value="Build Stage" style="text;html=1;strokeColor=none;fillColor=none;align=center;verticalAlign=middle;whiteSpace=wrap;rounded=0;" parent="1" vertex="1">
          <mxGeometry x="40" y="280" width="80" height="30" as="geometry" />
        </mxCell>
        <mxCell id="TacEt5JEjnXENLw2XKBG-33" value="Deployment Stage" style="text;html=1;strokeColor=none;fillColor=none;align=center;verticalAlign=middle;whiteSpace=wrap;rounded=0;" parent="1" vertex="1">
          <mxGeometry x="39.42" y="380" width="120" height="30" as="geometry" />
        </mxCell>
        <mxCell id="TacEt5JEjnXENLw2XKBG-34" value="" style="endArrow=none;html=1;rounded=0;dashed=1;dashPattern=12 12;" parent="1" edge="1">
          <mxGeometry width="50" height="50" relative="1" as="geometry">
            <mxPoint x="540" y="300" as="sourcePoint" />
            <mxPoint x="250" y="300" as="targetPoint" />
          </mxGeometry>
        </mxCell>
        <mxCell id="TacEt5JEjnXENLw2XKBG-35" value="JavaScript" style="edgeLabel;html=1;align=center;verticalAlign=middle;resizable=0;points=[];" parent="TacEt5JEjnXENLw2XKBG-34" vertex="1" connectable="0">
          <mxGeometry x="-0.4" y="1" relative="1" as="geometry">
            <mxPoint x="45" y="-11" as="offset" />
          </mxGeometry>
        </mxCell>
        <mxCell id="TacEt5JEjnXENLw2XKBG-38" value="&lt;div align=&quot;left&quot;&gt;PHP&lt;/div&gt;" style="edgeLabel;html=1;align=left;verticalAlign=middle;resizable=0;points=[];" parent="1" vertex="1" connectable="0">
          <mxGeometry x="500" y="310" as="geometry" />
        </mxCell>
        <mxCell id="TacEt5JEjnXENLw2XKBG-46" value="Deploy Staging" style="rounded=1;whiteSpace=wrap;html=1;fillColor=#d5e8d4;strokeColor=#82b366;" parent="1" vertex="1">
          <mxGeometry x="59.42" y="450" width="140" height="30" as="geometry" />
        </mxCell>
        <mxCell id="TacEt5JEjnXENLw2XKBG-47" value="Deploy Production" style="rounded=1;whiteSpace=wrap;html=1;fillColor=#f8cecc;strokeColor=#b85450;" parent="1" vertex="1">
          <mxGeometry x="59.42" y="490" width="140" height="30" as="geometry" />
        </mxCell>
        <mxCell id="4hqCCRMgRRj-aJbobt0X-36" style="edgeStyle=orthogonalEdgeStyle;rounded=0;orthogonalLoop=1;jettySize=auto;html=1;exitX=0.5;exitY=1;exitDx=0;exitDy=0;entryX=0.5;entryY=0;entryDx=0;entryDy=0;dashed=1;endArrow=block;endFill=0;" parent="1" source="4hqCCRMgRRj-aJbobt0X-30" target="TacEt5JEjnXENLw2XKBG-30" edge="1">
          <mxGeometry relative="1" as="geometry" />
        </mxCell>
        <mxCell id="4hqCCRMgRRj-aJbobt0X-30" value="" style="rounded=0;whiteSpace=wrap;html=1;fillColor=none;dashed=1;" parent="1" vertex="1">
          <mxGeometry x="40" y="100" width="180" height="150" as="geometry" />
        </mxCell>
        <mxCell id="4hqCCRMgRRj-aJbobt0X-31" value="VCS" style="text;html=1;strokeColor=none;fillColor=none;align=center;verticalAlign=middle;whiteSpace=wrap;rounded=0;" parent="1" vertex="1">
          <mxGeometry x="40" y="100" width="50" height="30" as="geometry" />
        </mxCell>
        <mxCell id="4hqCCRMgRRj-aJbobt0X-32" value="&lt;div&gt;development&lt;/div&gt;" style="rounded=1;whiteSpace=wrap;html=1;fillColor=#dae8fc;strokeColor=#6c8ebf;" parent="1" vertex="1">
          <mxGeometry x="60" y="160" width="140" height="20" as="geometry" />
        </mxCell>
        <mxCell id="4hqCCRMgRRj-aJbobt0X-33" value="release/..." style="rounded=1;whiteSpace=wrap;html=1;fillColor=#d5e8d4;strokeColor=#82b366;" parent="1" vertex="1">
          <mxGeometry x="60" y="190" width="140" height="20" as="geometry" />
        </mxCell>
        <mxCell id="4hqCCRMgRRj-aJbobt0X-34" value="main" style="rounded=1;whiteSpace=wrap;html=1;fillColor=#f8cecc;strokeColor=#b85450;" parent="1" vertex="1">
          <mxGeometry x="60" y="220" width="140" height="20" as="geometry" />
        </mxCell>
        <mxCell id="4hqCCRMgRRj-aJbobt0X-35" value="feature/..." style="rounded=1;whiteSpace=wrap;html=1;" parent="1" vertex="1">
          <mxGeometry x="60" y="130" width="140" height="20" as="geometry" />
        </mxCell>
        <mxCell id="4hqCCRMgRRj-aJbobt0X-40" value="" style="endArrow=block;html=1;rounded=0;entryX=1;entryY=0.5;entryDx=0;entryDy=0;dashed=1;endFill=0;exitX=0.001;exitY=0.825;exitDx=0;exitDy=0;exitPerimeter=0;" parent="1" source="TacEt5JEjnXENLw2XKBG-28" target="TacEt5JEjnXENLw2XKBG-32" edge="1">
          <mxGeometry width="50" height="50" relative="1" as="geometry">
            <mxPoint x="240" y="455" as="sourcePoint" />
            <mxPoint x="270" y="440" as="targetPoint" />
          </mxGeometry>
        </mxCell>
        <mxCell id="B_-ukQkwO0o4su6yDb8z-1" value="AuditJS" style="rounded=1;whiteSpace=wrap;html=1;" vertex="1" parent="1">
          <mxGeometry x="400" y="180" width="120" height="40" as="geometry" />
        </mxCell>
        <mxCell id="B_-ukQkwO0o4su6yDb8z-2" value="License-Checker" style="rounded=1;whiteSpace=wrap;html=1;" vertex="1" parent="1">
          <mxGeometry x="400" y="230" width="120" height="40" as="geometry" />
        </mxCell>
      </root>
    </mxGraphModel>
  </diagram>
</mxfile>
